<?xml version="1.0" encoding="utf-8" ?>
<svg xmlns="http://www.w3.org/2000/svg" xmlns:xlink="http://www.w3.org/1999/xlink" width="801" height="801">
	<path fill="#21232E" transform="scale(0.781843 0.781843)" d="M566.105 129.865C578.21 123.925 590.52 118.411 603.012 113.334C601.447 117.99 599.824 122.55 597.877 127.067L597.724 129.18C600.816 130.999 786.772 130.527 808.961 130.089L809.564 424.88L809.622 514.804C809.634 530.128 810.04 545.559 809.62 560.868L640.386 560.933C607.865 560.883 575.236 561.302 542.727 560.516C542.211 561.995 542.105 562.767 540.915 563.819C534.067 564.344 527.082 564.1 520.215 564.115L486.973 564.15C477.871 564.146 457.065 565.068 449.513 563.451C447.882 562.607 444.838 562.675 443.019 562.649C427.897 562.432 412.654 562.991 397.513 563.007C361.504 563.225 325.494 563.044 289.489 562.466L288.837 560.731C283.94 561.761 277.591 561.027 272.51 560.992L240.442 560.83C240.465 542.028 241.134 522.947 240.199 504.183C220.222 487.993 199.717 470.999 195.662 444.05C191.517 416.497 205.888 395.419 221.365 374.278C223.686 375.83 225.852 377.59 228.046 379.313C232.994 369.933 237.565 356.58 237.579 345.962L237.549 129.63C262.617 128.766 287.919 129.465 313.017 129.467L457.014 129.516L531.318 129.539C541.703 129.533 556.317 128.44 566.105 129.865Z"/>
	<path fill="#FECB52" transform="scale(0.781843 0.781843)" d="M221.365 374.278C223.686 375.83 225.852 377.59 228.046 379.313C240.331 388.986 252.486 398.821 264.51 408.815C268.987 412.497 274.239 416.07 278.356 420.107L277.748 421.035C273.048 426.286 269.07 433.311 265.753 439.533C274.668 448.051 283.639 456.725 293.018 464.73C301.251 472.491 309.582 480.167 317.73 488.016C324.564 494.6 336.04 507.429 343.658 511.766C342.148 515.483 340.66 519.178 338.823 522.75L336.679 527.887C335.525 531.073 334.456 534.339 333.036 537.415C330.067 544.815 326.938 552.195 324.389 559.751C319.48 559.663 314.44 559.811 309.555 559.355C303.664 559.277 294.148 558.033 288.837 560.731C283.94 561.761 277.591 561.027 272.51 560.992L240.442 560.83C240.465 542.028 241.134 522.947 240.199 504.183C220.222 487.993 199.717 470.999 195.662 444.05C191.517 416.497 205.888 395.419 221.365 374.278Z"/>
	<path fill="#21232E" transform="scale(0.781843 0.781843)" d="M240.199 504.183C249.607 512.353 265.064 528.528 275.13 533.932C276.831 534.535 278.376 535.035 279.149 536.832C279.24 537.045 279.297 537.271 279.371 537.49C285.214 543.547 300.292 558.938 308.49 559.132C308.888 559.14 309.286 559.139 309.684 559.13C311.457 558.543 312.421 557.643 313.375 556.068C315.059 546.327 287.757 532.549 283.223 523.509C282.747 522.56 282.841 522.991 283.229 521.872C284.772 521.502 285.674 521.796 287.02 522.645C289.711 524.343 292.08 526.918 294.408 529.072C300.874 535.054 308.262 542.86 315.94 547.249C317.626 548.213 319.879 549.174 321.828 548.418C323.576 547.74 325.133 545.415 325.619 543.672C327.748 536.04 298.186 519.238 294.045 511.173C293.562 510.231 293.632 510.64 293.954 509.632C299.843 508.494 317.081 527.14 322.393 531.343C325.734 533.985 329.071 535.875 333.036 537.415C330.067 544.815 326.938 552.195 324.389 559.751C319.48 559.663 314.44 559.811 309.555 559.355C303.664 559.277 294.148 558.033 288.837 560.731C283.94 561.761 277.591 561.027 272.51 560.992L240.442 560.83C240.465 542.028 241.134 522.947 240.199 504.183Z"/>
	<path fill="#FEFEFE" transform="scale(0.781843 0.781843)" d="M275.13 533.932C276.831 534.535 278.376 535.035 279.149 536.832C279.24 537.045 279.297 537.271 279.371 537.49L275.306 544.099C277.085 545.66 278.938 547.203 280.594 548.896C281.831 550.16 283.832 552.089 283.825 553.921C279.046 553.863 273.513 547.21 270.235 543.966C271.976 540.658 273.652 537.367 275.13 533.932Z"/>
	<path fill="#21232E" transform="scale(0.781843 0.781843)" d="M336.679 527.887C331.243 522.263 305.99 502.908 305.516 497.084L306.273 496.286C311.771 497.422 325.319 511.847 330.106 516.013C332.885 518.432 335.83 520.605 338.823 522.75L336.679 527.887Z"/>
	<path fill="#FECB52" transform="scale(0.781843 0.781843)" d="M569.484 293.305C575.027 283.972 579.31 272.399 586.577 264.319C588.193 262.521 590.54 260.428 593.15 260.603C594.499 260.694 595.995 261.525 596.82 262.599C601.18 268.273 590.354 280.941 587.448 286.106C585.88 288.893 584.41 292.768 584.071 295.952L584.475 296.292C592.052 290.74 594.184 278.644 600.215 271.592C601.482 270.11 603.481 268.532 605.54 268.597C606.677 268.634 607.716 269.154 608.528 269.93C609.439 270.802 610.981 272.799 610.958 274.107C610.828 281.505 597.082 295.654 597.102 304.359L597.678 304.576C603.957 302.051 607.189 283.97 613.678 279.568C615.394 278.403 618.04 277.347 620.142 277.959C621.5 278.354 622.253 278.953 622.867 280.232C626.09 286.937 613.569 300.95 610.87 307.06C610.117 308.765 609.7 310.323 610.422 312.121C614.125 312.739 621.124 291.178 627.984 288.209C629.337 287.623 630.474 287.63 631.837 288.224C633.095 288.774 634.131 290.182 634.597 291.436C635.563 294.035 634.548 296.355 633.51 298.76C629.659 307.685 623.683 316.538 619.139 325.29C608.105 346.503 597.241 367.804 586.548 389.191C580.993 400.195 574.865 410.966 570.006 422.3C569.131 422.56 568.431 422.799 567.513 422.825C560.578 422.158 553.304 422.546 546.341 422.636L513.346 423.037C506.903 423.101 499.941 423.649 493.587 422.593C496.49 417.96 498.905 412.65 501.553 407.839C509.129 394.071 516.48 380.154 524.24 366.492C530.137 356.183 536.11 345.919 542.16 335.699C545.801 329.529 550.215 323.112 552.902 316.48C556.867 306.693 553.066 290.025 558.04 282.6C559.194 280.876 561.779 279.022 563.88 278.846C565.182 278.738 566.106 279.3 567.005 280.183C570.236 283.358 569.772 289.206 569.484 293.305Z"/>
	<path fill="#C676F1" transform="scale(0.781843 0.781843)" d="M566.105 129.865C578.21 123.925 590.52 118.411 603.012 113.334C601.447 117.99 599.824 122.55 597.877 127.067C593.923 134.307 590.651 141.979 587.223 149.482C577.213 171.395 568.281 193.986 557.649 215.587C549.132 213.354 540.548 211.443 532.001 209.334C528.768 208.536 524.279 206.66 521.022 206.571C520.182 206.232 519.359 205.91 518.499 205.625C513.514 203.969 493.503 198.12 489.747 200.025C484.092 196.627 457.672 191.336 449.249 189.061C461.629 181.512 474.681 175.219 487.641 168.749L535.122 145.226C545.35 140.234 556.383 135.731 566.105 129.865Z"/>
	<path fill="#6601FE" transform="scale(0.781843 0.781843)" d="M570.006 422.3C576.914 421.153 583.617 421.336 590.579 421.652C585.946 438.196 579.583 454.059 573.845 470.229L553.98 527.797C550.166 538.633 545.868 549.463 542.727 560.516C542.211 561.995 542.105 562.767 540.915 563.819C534.067 564.344 527.082 564.1 520.215 564.115L486.973 564.15C477.871 564.146 457.065 565.068 449.513 563.451C447.882 562.607 444.838 562.675 443.019 562.649C427.897 562.432 412.654 562.991 397.513 563.007C361.504 563.225 325.494 563.044 289.489 562.466L288.837 560.731C294.148 558.033 303.664 559.277 309.555 559.355C314.44 559.811 319.48 559.663 324.389 559.751C326.938 552.195 330.067 544.815 333.036 537.415C334.456 534.339 335.525 531.073 336.679 527.887L338.823 522.75C340.66 519.178 342.148 515.483 343.658 511.766C356.432 481.769 368.995 451.682 381.347 421.509C394.99 421.704 408.666 421.506 422.312 421.438C430.993 421.394 439.815 420.997 448.442 422.097L449.535 423.232L448.851 425.217C427.185 424.087 405.237 425.35 383.525 424.991C379.207 437.297 373.952 449.21 368.874 461.213L351.384 503.146L337.616 536.785C334.513 544.425 331.653 552.33 327.78 559.614C375.535 558.831 423.295 558.448 471.057 558.467C493.365 558.443 515.766 558.073 538.065 558.713C552.27 513.618 569.848 469.534 584.881 424.716L567.9 425.674C567.46 425.623 567.018 425.586 566.583 425.5C565.428 425.272 564.453 424.766 563.812 423.781C565.04 422.788 565.963 422.957 567.513 422.825C568.431 422.799 569.131 422.56 570.006 422.3Z"/>
	<path fill="#FECB52" transform="scale(0.781843 0.781843)" d="M515.027 375.01C515.3 375.994 515.118 376.714 514.729 377.648C512.824 382.217 509.862 386.776 507.487 391.154C503.574 398.366 499.875 405.697 495.828 412.835C493.786 416.462 491.656 420.039 489.44 423.563C479.102 421.029 463.382 422.863 452.498 423.064C450.03 418.336 451.262 411.094 451.659 405.887C452.101 410.37 451.968 414.882 451.932 419.381C462.824 410.322 474.517 402.622 486.034 394.417C495.32 387.803 504.728 379.983 515.027 375.01Z"/>
	<path fill="#FEFEFE" transform="scale(0.781843 0.781843)" d="M489.747 200.025C493.503 198.12 513.514 203.969 518.499 205.625C519.359 205.91 520.182 206.232 521.022 206.571C511.973 216.627 503.797 227.46 494.586 237.363C493.78 224.833 491.511 212.444 489.747 200.025Z"/>
	<path fill="#FEFEFE" transform="scale(0.781843 0.781843)" d="M448.442 422.097L447.524 384.905C447.384 379.106 446.569 372.424 447.505 366.709C447.704 365.499 447.764 364.574 448.789 363.818L449.639 364.54C453.06 372.8 451.437 395.889 451.659 405.887C451.262 411.094 450.03 418.336 452.498 423.064C451.519 423.05 450.513 423.169 449.535 423.232L448.442 422.097Z"/>
	<path fill="#351ACC" transform="scale(0.781843 0.781843)" d="M493.587 422.593C499.941 423.649 506.903 423.101 513.346 423.037L546.341 422.636C553.304 422.546 560.578 422.158 567.513 422.825C565.963 422.957 565.04 422.788 563.812 423.781C564.453 424.766 565.428 425.272 566.583 425.5C567.018 425.586 567.46 425.623 567.9 425.674C559.086 426.422 549.904 425.495 541.042 425.5L510.793 425.46C505.723 425.472 499.637 426.248 494.705 425.248C493.63 425.031 493.444 425.035 492.801 424.114L493.587 422.593Z"/>
	<path fill="#FEFEFE" transform="scale(0.781843 0.781843)" d="M278.356 420.107C278.483 420.184 278.607 420.267 278.737 420.34C279.498 420.769 280.969 421.565 281.806 421.396C289.81 419.78 301.491 396.655 310.573 394.05L310.866 394.297C310.872 394.553 310.907 394.81 310.884 395.065C310.373 400.795 296.512 412.707 292.132 417.053C289.151 420.143 286.23 423.348 282.97 426.146C281.117 424.527 279.242 423.005 277.748 421.035L278.356 420.107Z"/>
	<path fill="#351ACC" transform="scale(0.781843 0.781843)" d="M452.498 423.064C463.382 422.863 479.102 421.029 489.44 423.563C488.937 424.536 488.924 424.817 487.804 425.146C482.033 426.84 454.884 426.274 448.851 425.217L449.535 423.232C450.513 423.169 451.519 423.05 452.498 423.064Z"/>
	<path fill="#C676F1" transform="scale(0.781843 0.781843)" d="M606.866 246.549L790.968 246.565L791.012 260.12L606.855 260.025L606.866 246.549Z"/>
	<path fill="#C676F1" transform="scale(0.781843 0.781843)" d="M606.87 148.546C632.678 148.359 658.475 148.942 684.277 148.854C719.548 148.735 754.858 148.027 790.126 148.713L790.344 161.805C785.431 162.751 779.119 162.082 774.079 162.068L739.311 161.991L606.848 162.135L606.87 148.546Z"/>
	<path fill="#C676F1" transform="scale(0.781843 0.781843)" d="M616.397 214.25C674.382 213.861 732.369 213.907 790.354 214.386L790.322 227.462L780.75 227.462L606.532 227.455L606.538 214.37L616.397 214.25Z"/>
	<path fill="#C676F1" transform="scale(0.781843 0.781843)" d="M606.86 181.497L790.358 181.507C790.449 185.819 790.535 190.076 790.175 194.382C783.973 195.072 777.191 194.538 770.914 194.534L733.057 194.526L606.859 194.699L606.86 181.497Z"/>
	<path fill="#FECB52" transform="scale(0.781843 0.781843)" d="M354.687 279.639C356.793 280.284 360.461 281.704 362.578 280.753C363.799 280.205 364.06 279.652 364.498 278.515C362.953 273.453 353.819 272.62 351.129 267.216C350.253 265.465 350.166 263.424 350.888 261.605C355.771 249.253 370.688 260.185 379.118 257.652C386.07 255.564 388.568 249.532 393.052 247.513C393.599 247.955 393.967 248.365 394.266 249.01C397.471 255.923 396.486 271.718 393.796 278.874C391.775 284.251 388.565 287.244 383.471 289.672C383.272 289.721 383.073 289.773 382.874 289.82C377.469 291.089 366.089 288.471 362.731 292.735C362.997 295.074 364.373 296.238 366.186 297.634C370.942 301.292 376.416 301.432 382.113 300.637C382.724 300.549 383.332 300.443 383.937 300.319L384.06 312.206C383.625 317.086 382.82 321.505 379.352 325.225C376.977 327.771 373.688 329.417 370.176 329.487C366.248 329.566 362.52 327.861 359.781 325.088C355.12 320.369 354.854 314.897 354.837 308.678C354.402 299.004 354.352 289.317 354.687 279.639Z"/>
	<path fill="#FEFEFE" transform="scale(0.781843 0.781843)" d="M370.159 219.623C377.144 219.12 384.085 220.071 390.048 224C395.537 227.565 399.275 233.274 400.348 239.731C400.653 241.486 400.835 244.079 399.773 245.541C396.329 244.32 394.832 238.505 391.272 237.238C390.433 236.939 389.957 236.795 389.169 237.233C386.865 238.514 386.268 241.66 385.451 243.987C379.412 261.176 364.347 246.393 352.965 252.001C352.814 252.075 352.665 252.153 352.515 252.23C350.187 254.053 348.457 256.332 347.499 259.156C345.359 265.456 348.32 271.439 351.124 276.937C344.808 272.858 339.454 267.649 337.872 259.966C336.771 254.619 338.147 249.804 341.072 245.298C343.317 241.841 346.054 238.655 348.506 235.34C355.638 225.699 357.914 222.193 370.159 219.623Z"/>
	<path fill="#FEFEFE" transform="scale(0.781843 0.781843)" d="M455.913 473.767C465.552 472.207 474.639 478.73 476.245 488.361C477.852 497.992 471.374 507.11 461.751 508.763C452.061 510.428 442.866 503.895 441.248 494.198C439.631 484.5 446.208 475.337 455.913 473.767Z"/>
	<path fill="#C676F1" transform="scale(0.781843 0.781843)" d="M289.489 562.466C325.494 563.044 361.504 563.225 397.513 563.007C412.654 562.991 427.897 562.432 443.019 562.649C444.838 562.675 447.882 562.607 449.513 563.451L449.571 708.868C449.542 732.35 448.891 755.972 449.332 779.436C449.365 781.173 449.224 783.408 450.055 784.96L451.326 785.424C459.641 786.074 467.521 791.205 472.857 797.445C477.014 802.305 478.918 807.171 480.611 813.285C481.08 814.983 481.37 816.986 482.096 818.568C482.507 819.767 482.793 820.746 482.912 822.021L201.749 821.867L127.431 821.751L105.218 821.649C102.119 821.628 98.5286 821.963 95.48 821.485C94.4637 821.326 94.4805 821.378 93.882 820.487C95.4147 818.981 98.1624 819.023 100.246 818.916C107.586 818.537 115.046 818.83 122.398 818.848L163.017 818.9L290.916 818.681C290.735 810.311 290.909 801.903 290.914 793.53C290.529 787.228 289.541 780.986 289.34 774.669C288.541 749.48 289.634 723.895 289.631 698.645L289.489 562.466Z"/>
	<path fill="#FEFEFE" transform="scale(0.781843 0.781843)" d="M367.448 784.231C378.567 785.626 389.519 791.517 396.415 800.415C398.796 803.486 400.593 806.876 402.367 810.319C426.947 810.438 451.527 810.351 476.105 810.059C471.775 801.784 466.255 794.071 456.9 791.104C452.401 789.677 446.585 789.437 443.348 785.762C445.995 785.342 448.653 785.423 451.326 785.424C459.641 786.074 467.521 791.205 472.857 797.445C477.014 802.305 478.918 807.171 480.611 813.285C481.08 814.983 481.37 816.986 482.096 818.568C482.507 819.767 482.793 820.746 482.912 822.021L201.749 821.867L127.431 821.751L105.218 821.649C102.119 821.628 98.5286 821.963 95.48 821.485C94.4637 821.326 94.4805 821.378 93.882 820.487C95.4147 818.981 98.1624 819.023 100.246 818.916C107.586 818.537 115.046 818.83 122.398 818.848L163.017 818.9L290.916 818.681C290.735 810.311 290.909 801.903 290.914 793.53C290.984 791.835 291.04 790.164 290.99 788.468C290.957 787.353 291.073 786.611 291.497 785.557L292.268 785.224C293.641 788.271 292.971 792.894 293.404 796.259C293.609 792.597 293.411 788.843 293.372 785.171C303.466 785.07 360.553 783.838 365.717 786.2L367.448 784.231Z"/>
	<path fill="#21232E" transform="scale(0.781843 0.781843)" d="M293.372 785.171C303.466 785.07 360.553 783.838 365.717 786.2C368.305 789.835 375.774 790.383 379.878 792.295C388.016 796.087 394.358 802.558 398.815 810.286C363.581 810.547 328.346 810.603 293.112 810.455C293.323 805.714 293.498 801.008 293.404 796.259C293.609 792.597 293.411 788.843 293.372 785.171Z"/>
	<path fill="#21232E" transform="scale(0.781843 0.781843)" d="M293.385 814.031L399.897 813.872C400.33 815.669 400.645 817.511 401.013 819.323C388.182 819.235 297.479 820.255 294.009 818.784C293.184 817.331 293.389 815.654 293.385 814.031Z"/>
	<path fill="#21232E" transform="scale(0.781843 0.781843)" d="M424.835 813.738C432.902 813.643 440.978 813.929 449.049 813.827C456.259 813.735 463.731 813.1 470.912 813.661C473.08 813.83 475.49 814.063 477.302 815.353C477.634 816.575 477.722 817.314 477.52 818.567C475.485 820.388 461.246 819.426 457.75 819.424L404.239 819.448L403.284 814.023L424.835 813.738Z"/>
	<path fill="#21232E" transform="scale(0.781843 0.781843)" d="M367.708 608.002C362.729 608.085 355.728 609.054 351.123 607.078L350.413 606.261C350.524 605.49 350.379 605.226 351.058 604.703C355.06 601.616 366.55 603.482 371.501 603.553C372.08 643.203 371.591 682.809 371.506 722.458C371.292 743.102 371.441 763.748 371.953 784.386C383.071 785.649 439.341 783.705 443.348 785.762C446.585 789.437 452.401 789.677 456.9 791.104C466.255 794.071 471.775 801.784 476.105 810.059C451.527 810.351 426.947 810.438 402.367 810.319C400.593 806.876 398.796 803.486 396.415 800.415C389.519 791.517 378.567 785.626 367.448 784.231C368.905 763.962 367.738 743.276 367.73 722.951L367.708 608.002Z"/>
	<path fill="#FEFEFE" transform="scale(0.781843 0.781843)" d="M662.029 817.905C666.846 811.322 672.742 805.449 678.252 799.442L700.973 774.327L776.216 690.59C782.865 683.34 789.466 676.046 796.019 668.71C799.3 665.012 803.044 659.558 806.972 656.717C808.052 655.935 808.643 655.789 809.938 655.938C816.139 663.07 821.701 670.786 827.433 678.297C831.048 683.032 834.992 687.629 838.399 692.502C838.177 734.532 837.563 776.644 838.515 818.666C854.958 817.598 872.009 818.541 888.522 818.537C895.156 818.535 901.805 818.606 908.436 818.413C913.624 818.263 918.821 817.782 924.012 817.952C927.034 818.05 930.18 818.182 933.02 819.282L933.621 820.027C933.029 821.102 932.935 821.333 931.672 821.712C927.796 822.876 909.016 822.035 903.39 822.025L836.784 822.047L482.912 822.021C482.793 820.746 482.507 819.767 482.096 818.568C499.426 818.457 516.757 818.45 534.087 818.547C541.752 818.552 549.835 819.063 557.461 818.434C558.752 818.327 559.101 818.274 560.058 817.469C564.508 819.576 650.225 820.254 656.115 818.163C656.308 818.095 656.485 817.988 656.67 817.901C658.207 818.447 659.967 818.939 661.531 818.208C661.707 818.125 661.863 818.006 662.029 817.905Z"/>
	<path fill="#6601FE" transform="scale(0.781843 0.781843)" d="M809.938 655.938C816.139 663.07 821.701 670.786 827.433 678.297C831.048 683.032 834.992 687.629 838.399 692.502C838.177 734.532 837.563 776.644 838.515 818.666C829.579 819.932 819.494 819.217 810.473 818.897C809.929 794.961 810.354 770.895 810.326 746.947C810.314 736.98 810.716 726.859 810.101 716.919C810.488 708.273 810.15 699.469 810.146 690.809C810.139 679.198 810.345 667.542 809.938 655.938Z"/>
	<path fill="#CFCAD3" transform="scale(0.781843 0.781843)" d="M810.101 716.919C810.716 726.859 810.314 736.98 810.326 746.947C810.354 770.895 809.929 794.961 810.473 818.897C819.494 819.217 829.579 819.932 838.515 818.666C854.958 817.598 872.009 818.541 888.522 818.537C895.156 818.535 901.805 818.606 908.436 818.413C913.624 818.263 918.821 817.782 924.012 817.952C927.034 818.05 930.18 818.182 933.02 819.282L933.621 820.027C933.029 821.102 932.935 821.333 931.672 821.712C927.796 822.876 909.016 822.035 903.39 822.025L836.784 822.047L482.912 822.021C482.793 820.746 482.507 819.767 482.096 818.568C499.426 818.457 516.757 818.45 534.087 818.547C541.752 818.552 549.835 819.063 557.461 818.434C558.752 818.327 559.101 818.274 560.058 817.469C564.508 819.576 650.225 820.254 656.115 818.163C656.308 818.095 656.485 817.988 656.67 817.901C658.207 818.447 659.967 818.939 661.531 818.208C661.707 818.125 661.863 818.006 662.029 817.905C666.947 820.294 796.03 819.531 810.01 818.666C809.541 798.062 809.94 777.34 809.915 756.722C809.899 743.657 809.036 729.907 810.101 716.919Z"/>
	<path fill="#FEFEFE" transform="scale(0.781843 0.781843)" d="M560.058 817.469C567.853 807.563 576.954 798.269 585.504 788.998L634.833 736.333L690.312 675.969C699.707 665.613 708.886 655.029 718.5 644.877C721.376 641.839 727.905 633.688 731.491 632.543C732.968 632.922 733.143 633.571 734.04 634.766C742.667 646.065 754.579 660.192 762.029 671.862C762.3 680.676 762.287 689.497 761.989 698.31C755.407 709.068 743.577 721.537 734.523 730.313L656.67 817.901C656.485 817.988 656.308 818.095 656.115 818.163C650.225 820.254 564.508 819.576 560.058 817.469Z"/>
	<path fill="#6601FE" transform="scale(0.781843 0.781843)" d="M734.04 634.766C742.667 646.065 754.579 660.192 762.029 671.862C762.3 680.676 762.287 689.497 761.989 698.31C755.407 709.068 743.577 721.537 734.523 730.313C735.076 698.413 734.376 666.656 734.04 634.766Z"/>
</svg>
