<?xml version="1.0" encoding="utf-8" ?>
<svg xmlns="http://www.w3.org/2000/svg" xmlns:xlink="http://www.w3.org/1999/xlink" width="1024" height="1024">
	<path fill="#6501FE" d="M534.585 410.422C657.189 408.993 779.88 409.918 902.495 409.92L902.613 430.877C903.178 440.41 902.745 449.996 903.06 459.541C903.19 463.486 904.233 467.397 904.351 471.261C904.386 472.392 903.997 473.349 903.385 474.283C902.503 477.1 902.859 480.253 902.61 483.177L902.438 723.145L534.462 723.054L534.585 410.422Z"/>
	<path fill="#01011C" d="M540.021 457.077C572.064 458.711 604.594 457.386 636.699 457.382L796.48 457.357C815.74 457.184 835.028 457.254 854.284 456.912C867.873 456.671 881.892 455.51 895.432 456.97C895.405 458.524 895.047 461.236 895.742 462.594C896.481 464.039 897.559 464.182 898.942 464.688L897.101 465.908L896.99 466.873L898.405 468.641C891.294 469.716 883.676 467.621 876.706 469.359C881.297 469.397 899.836 468.313 902.421 470.235C902.972 471.639 902.899 472.581 902.751 474.033L895.042 474.037C895.435 474.896 895.782 475.9 896.311 476.678C897.254 556.586 896.452 636.742 896.482 716.676L655.535 716.489C617.365 716.503 579.187 717.373 541.023 716.473C541.265 630.006 540.931 543.539 540.021 457.077Z"/>
	<path fill="#FECC50" d="M895.042 474.037C865.945 473.385 836.674 473.998 807.556 473.966L646.731 473.549L592.08 473.509C583.958 473.524 575.642 474.041 567.543 473.714C565.875 473.647 564.172 473.595 562.648 472.856C562.491 471.562 562.348 471.539 563.115 470.511C569.275 467.922 671.7 469.613 687.678 469.616L876.706 469.359C881.297 469.397 899.836 468.313 902.421 470.235C902.972 471.639 902.899 472.581 902.751 474.033L895.042 474.037Z"/>
	<path fill="#FECC50" d="M738.676 553.006C743.693 552.983 748.711 553.025 753.727 553.13C754.037 557.239 753.95 561.41 753.992 565.532C757.672 567.101 761.076 568.941 764.537 570.944C767.602 567.636 770.942 564.746 774.469 561.944C777.927 564.944 781.211 568.056 783.886 571.789C781.142 575.029 778.378 577.705 774.871 580.107C776.429 583.592 778.223 586.982 779.947 590.388C783.901 591.096 788.1 591.148 792.107 591.377L792.313 604.501L779.358 604.613C778.205 608.601 776.52 612.426 774.945 616.263C777.983 619.089 780.878 622.03 783.764 625.01C780.316 628.751 776.601 632.384 772.647 635.585C769.977 632.25 767.055 629.106 764.209 625.922L752.167 631.101C752.324 634.586 752.16 638.134 752.127 641.625C752.034 642.176 751.785 642.559 751.526 643.047C748.147 644.939 742.627 644.083 738.817 643.948L738.89 630.426C734.81 628.972 730.881 627.156 726.929 625.391C724.075 628.138 721.449 631.165 718.767 634.082C714.822 631.218 711.134 628.017 707.743 624.514C711.025 621.128 714.569 617.966 718.012 614.742C715.83 611.892 714.548 608.836 713.324 605.504C708.884 605.468 704.444 605.394 700.005 605.283L700.007 591.475C703.3 591.593 707.523 592.2 710.627 590.98C714.406 589.494 715.62 585.394 717.082 581.972C714.191 579.055 711.333 576.105 708.509 573.122C711.453 569.681 714.77 566.668 718.087 563.597C721.103 565.978 724.032 568.355 726.682 571.144C730.696 568.865 734.367 567.566 738.883 566.607C738.734 562.075 738.665 557.54 738.676 553.006Z"/>
	<path fill="#01011C" d="M742.927 579.716C749.569 578.473 756.365 580.904 760.711 586.079C765.056 591.253 766.277 598.367 763.905 604.694C761.534 611.021 755.937 615.579 749.261 616.622C739.152 618.201 729.647 611.373 727.917 601.288C726.186 591.204 732.87 581.598 742.927 579.716Z"/>
	<path fill="#6501FE" d="M629.625 606.623C633.57 606.941 637.592 606.91 641.55 607.023L641.532 618.808C645.347 620.416 648.724 622.664 652.136 624.979C655.549 621.676 659.004 618.418 662.5 615.203C665.572 617.878 668.269 620.708 670.957 623.767C667.928 626.916 664.701 629.814 661.454 632.732C663.578 636.352 665.284 639.927 666.424 643.974L678.548 644.098L678.556 656.447L666.126 656.414L661.254 667.527C664.298 670.024 667.199 672.676 670.114 675.321L660.975 684.274L651.924 675.266C648.535 676.93 645.205 678.33 641.628 679.54C641.724 683.365 641.585 687.084 641.168 690.887C638.264 692.189 633.192 691.509 629.978 691.456L629.992 680.409C626.232 679.173 623.025 677.841 619.888 675.362C616.942 678.738 613.776 681.92 610.661 685.139C607.774 682.178 604.693 679.37 601.712 676.502C604.778 673.399 607.965 670.476 611.213 667.566C609.337 664.11 607.757 660.514 605.721 657.14C601.646 657.466 597.587 657.429 593.503 657.408C593.006 653.129 593.038 648.839 593.004 644.537L605.588 644.555C606.535 640.562 608.09 636.792 609.742 633.049C606.823 630.242 603.946 627.391 601.112 624.497C603.927 621.364 606.956 618.566 610.083 615.75C612.773 618.48 615.9 620.911 618.81 623.413C622.416 621.721 626.148 620.794 630.004 619.877C629.711 615.465 629.585 611.044 629.625 606.623Z"/>
	<path fill="#01011C" d="M632.017 630.739C642.473 628.606 652.68 635.35 654.818 645.806C656.956 656.261 650.215 666.471 639.761 668.613C629.3 670.756 619.083 664.011 616.944 653.549C614.805 643.088 621.554 632.874 632.017 630.739Z"/>
	<path fill="#FEFCFE" d="M817.724 503.442C820.535 503.309 823.366 503.424 826.179 503.463L828.478 510.867L835.484 513.01L841.394 508.676C843.632 510.84 845.787 513.101 847.966 515.325L843.006 522.5L846.038 528.879C847.966 529.002 849.73 528.964 851.362 530.101C852.826 531.121 854.341 532.98 854.525 534.813C854.658 536.135 854.083 537.333 853.263 538.325C851.46 540.507 848.895 540.262 846.309 540.428C845.144 542.438 843.95 544.211 842.442 545.98C844.063 548.341 845.458 550.846 846.891 553.323C846.734 553.504 846.579 553.686 846.421 553.865C845.017 555.449 843.078 557.812 840.729 557.637C838.5 557.472 836.794 555.127 835.39 553.59C833.496 554.281 831.557 554.964 829.778 555.921C828.277 556.729 827.535 557.462 827.005 559.073C826.709 561.155 826.568 563.268 826.375 565.362L817.057 565.007C816.914 562.144 816.62 559.272 816.391 556.414C814.433 555.515 812.534 554.355 810.637 553.326C810.279 553.619 809.923 553.914 809.556 554.193C807.194 555.991 805.321 557.419 802.245 556.984C801.081 556.218 800.527 555.819 800.157 554.421C799.317 551.249 801.398 548.018 802.763 545.309C801.662 543.712 800.407 542.213 799.202 540.694C797.116 540.293 795 540.075 792.893 539.816L792.922 531.21L799.052 530.157L802.023 523.141L798.006 515.504C799.276 513.701 800.813 511.23 803.09 510.659C805.863 509.964 808.496 512.425 810.555 513.953C811.49 513.522 812.44 513.091 813.329 512.571C816.503 510.714 816.934 506.707 817.724 503.442Z"/>
	<path fill="#01011C" d="M819.964 520.722C824.63 519.681 829.495 521.239 832.688 524.798C835.881 528.357 836.905 533.361 835.366 537.888C833.827 542.415 829.965 545.759 825.265 546.634C818.174 547.954 811.332 543.349 809.886 536.282C808.44 529.215 812.923 522.293 819.964 520.722Z"/>
	<path fill="#010101" d="M902.613 430.877C903.178 440.41 902.745 449.996 903.06 459.541C903.19 463.486 904.233 467.397 904.351 471.261C904.386 472.392 903.997 473.349 903.385 474.283L902.751 474.033C902.899 472.581 902.972 471.639 902.421 470.235C899.836 468.313 881.297 469.397 876.706 469.359C883.676 467.621 891.294 469.716 898.405 468.641L896.99 466.873L897.101 465.908L898.942 464.688C900.083 464.546 900.887 464.316 901.93 463.831C903.769 460.524 902.465 436.549 902.613 430.877Z"/>
	<path fill="#010101" d="M902.751 474.033L903.385 474.283C902.503 477.1 902.859 480.253 902.61 483.177C902.621 481.338 902.987 478.717 902.047 477.109C900.397 476.181 898.15 476.591 896.311 476.678C895.782 475.9 895.435 474.896 895.042 474.037L902.751 474.033Z"/>
	<path fill="#FEFCFE" d="M610.603 425.193C615.056 424.254 619.436 427.069 620.433 431.51C621.429 435.95 618.671 440.367 614.244 441.421C611.329 442.115 608.265 441.187 606.225 438.991C604.185 436.796 603.484 433.673 604.391 430.816C605.297 427.959 607.67 425.811 610.603 425.193Z"/>
	<path fill="#FEFCFE" d="M584.288 424.767C587.199 424.161 590.21 425.18 592.155 427.43C594.1 429.679 594.673 432.806 593.653 435.599C592.633 438.393 590.18 440.414 587.243 440.881C582.849 441.58 578.7 438.643 577.897 434.267C577.095 429.891 579.931 425.673 584.288 424.767Z"/>
	<path fill="#FEFCFE" d="M557.142 425.236C561.384 423.884 565.923 426.195 567.327 430.419C568.73 434.643 566.476 439.211 562.269 440.666C559.501 441.624 556.433 441.019 554.236 439.083C552.038 437.146 551.052 434.178 551.654 431.312C552.256 428.446 554.352 426.125 557.142 425.236Z"/>
	<path fill="#01011C" d="M356.477 231.733L357.079 230.333C358.388 230.349 358.812 230.848 359.691 231.759C366.609 238.939 374.659 248.343 385.636 248.47C385.809 248.472 385.979 248.44 386.151 248.425L386.523 251.506C399.768 252.076 413.232 251.499 426.505 251.604C440.17 251.712 454.431 252.596 468.031 251.506C469.743 251.369 469.803 250.808 470.828 249.552L471.833 248.942C472.854 248.556 473.031 248.375 474.075 248.89C475.133 249.411 476.059 250.387 476.929 251.175C480.243 251.013 485.971 250.066 488.618 252.368C491.024 254.461 490.253 255.249 493.785 255.901C492.344 256.061 491.169 255.903 490.041 256.86C489.17 262.697 489.682 268.977 489.797 274.875C489.909 281.833 489.961 288.791 489.952 295.75L489.966 332.826C489.928 339.326 489.54 345.945 489.83 352.432C499.52 352.489 509.768 351.888 519.408 352.612C510.097 354.016 499.132 352.744 489.597 352.983L489.453 370.213C474.894 370.482 460.332 370.589 445.77 370.535C445.366 388.397 443.886 406.166 443.389 423.999C442.482 457.737 442.16 491.488 442.421 525.237L442.437 609.367C442.445 623.161 443.155 637.324 442.367 651.067L442.521 700.876C442.568 710.943 443.035 721.269 442.318 731.305C433.038 730.432 423.225 731.018 413.886 731.021C391.005 731.028 368.033 731.684 345.172 731.408C342.826 731.38 337.858 731.805 336.21 730.12C338.641 722.214 339.443 713.491 340.863 705.338L348.934 659.985C359.424 602.893 369.362 545.701 378.748 488.418C384.613 488.394 390.478 488.286 396.34 488.093C396.174 481.766 395.98 475.452 396.154 469.123C396.218 466.544 396.711 463.167 395.002 461.026C394.879 460.872 394.729 460.742 394.593 460.6C393.804 460.895 392.991 460.92 392.614 461.735C390.749 465.775 392.786 478.101 391.745 483.701C390.856 476.443 391.494 468.417 391.517 461.07C381.876 462.345 371.726 461.293 362.003 461.253C350.637 461.206 339.382 461.995 328.046 460.709C327.066 459.695 326.061 458.877 324.927 458.039C311.277 475.881 294.449 491.412 279.827 508.523L276.049 507.066C261.71 493.766 245.17 482.263 229.577 470.435C200.48 448.364 171.018 426.558 142.565 403.671C154.174 391.459 166.095 379.547 178.316 367.948C185.742 360.764 194.871 353.609 200.706 345.095C202.269 341.215 211.851 332.466 215.231 328.833L217.716 325.992C219.178 325.874 219.945 325.551 221.073 324.587C227.02 319.509 232.006 312.889 237.502 307.294C248.307 296.51 259.041 285.656 269.703 274.733C277.218 267.015 284.468 259.002 292.241 251.543C301.143 251.428 353.146 252.528 357.237 251.131C356.245 244.699 356.452 238.22 356.477 231.733ZM288.305 367.874C286.66 370.405 281.75 377.822 279.301 379.009C272.824 387.426 266.36 395.931 259.111 403.706L257.826 405.09C258.197 406.189 258.575 406.601 259.319 407.462C271.902 416.857 284.217 426.603 296.825 435.964L298.095 435.907C298.326 435.486 298.429 435.362 298.517 434.824C299.119 431.124 295.08 408.332 294.445 402.755C293.231 392.097 292.685 381.293 291.22 370.678C290.97 368.867 290.785 367.453 289.703 365.927L288.305 367.874Z"/>
	<path fill="#FECC50" d="M396.772 461.207C411.891 461.762 427.016 461.079 442.136 461.534L442.106 590.055L442.144 629.914C442.154 636.867 441.738 644.158 442.367 651.067L442.521 700.876C442.568 710.943 443.035 721.269 442.318 731.305C433.038 730.432 423.225 731.018 413.886 731.021C391.005 731.028 368.033 731.684 345.172 731.408C342.826 731.38 337.858 731.805 336.21 730.12C338.641 722.214 339.443 713.491 340.863 705.338L348.934 659.985C359.424 602.893 369.362 545.701 378.748 488.418C384.613 488.394 390.478 488.286 396.34 488.093C396.174 481.766 395.98 475.452 396.154 469.123L396.772 461.207Z"/>
	<path fill="#D4BEF8" d="M217.716 325.992C226.973 330.939 287.757 361.296 289.814 365.536L289.703 365.927L288.305 367.874C286.66 370.405 281.75 377.822 279.301 379.009C272.824 387.426 266.36 395.931 259.111 403.706L257.826 405.09C258.197 406.189 258.575 406.601 259.319 407.462C271.902 416.857 284.217 426.603 296.825 435.964C305.904 443.666 315.873 450.277 324.927 458.039C311.277 475.881 294.449 491.412 279.827 508.523L276.049 507.066C261.71 493.766 245.17 482.263 229.577 470.435C200.48 448.364 171.018 426.558 142.565 403.671C154.174 391.459 166.095 379.547 178.316 367.948C185.742 360.764 194.871 353.609 200.706 345.095C202.269 341.215 211.851 332.466 215.231 328.833L217.716 325.992Z"/>
	<path fill="#01011C" d="M217.716 325.992C226.973 330.939 287.757 361.296 289.814 365.536L289.703 365.927L288.305 367.874C286.66 370.405 281.75 377.822 279.301 379.009C278.55 378.066 278.206 377.903 277.141 377.416C268.785 373.599 259.985 370.492 251.489 366.984C240.8 362.57 230.265 357.778 219.625 353.246C213.326 350.562 206.846 348.118 200.706 345.095C202.269 341.215 211.851 332.466 215.231 328.833L217.716 325.992Z"/>
	<path fill="#FECC50" d="M217.716 325.992C226.973 330.939 287.757 361.296 289.814 365.536L289.703 365.927L288.305 367.874C274.198 360.763 260.4 352.953 246.422 345.578C236.114 340.14 225.038 335.101 215.231 328.833L217.716 325.992Z"/>
	<path fill="#010101" d="M259.319 407.462C254.719 404.72 228.468 386.082 227.514 383.121C228.092 381.933 227.983 381.867 229.203 381.416C235.287 382.482 253.53 399.121 259.111 403.706L257.826 405.09C258.197 406.189 258.575 406.601 259.319 407.462Z"/>
	<path fill="#D4BEF8" d="M356.477 231.733L357.079 230.333C358.388 230.349 358.812 230.848 359.691 231.759C366.609 238.939 374.659 248.343 385.636 248.47C385.809 248.472 385.979 248.44 386.151 248.425L386.523 251.506C386.512 251.764 386.491 252.022 386.488 252.28C386.406 259.697 401.269 257.934 406.43 264.039C407.766 265.62 408.082 267.56 407.769 269.564C407.225 273.033 405.041 275.907 402.209 277.883C395.179 282.789 385.167 282.533 377.075 280.982C362.077 278.108 350.976 268.002 342.579 255.784C346.88 255.408 353.588 256.467 357.176 253.888C357.688 252.633 357.559 252.47 357.237 251.131C356.245 244.699 356.452 238.22 356.477 231.733Z"/>
	<path fill="#FECC50" d="M471.833 248.942C472.699 249.111 473.214 248.951 473.713 249.768C474.412 250.915 474.544 252.145 474.611 253.462C474.867 258.463 474.364 263.622 474.302 268.64C474.194 278.891 474.149 289.143 474.166 299.394L474.143 329.859C474.21 338.513 474.887 347.686 473.402 356.243L472.692 356.948C471.346 356.77 471.401 356.777 470.51 355.747C469.362 351.693 470.51 346.618 470.484 342.379C470.331 322.567 470.328 302.754 470.473 282.942C470.481 275.072 469.921 267.192 470.037 259.329C470.063 256.055 470.327 252.787 470.828 249.552L471.833 248.942Z"/>
	<path fill="#FECC50" d="M425.136 261.025C425.675 261.173 426.211 261.319 426.737 261.509C434.518 264.312 441.168 278.214 444.271 285.182C453.218 305.272 454.919 329.736 446.981 350.363C445.932 350.466 445.599 350.059 444.696 349.565C443.003 346.524 446.219 339.946 446.712 336.385C449.564 315.787 446.112 294.533 434.938 276.828C432.05 272.252 427.838 268.364 425.116 263.832C424.387 262.618 424.706 262.261 425.136 261.025Z"/>
	<path fill="#FECC50" d="M307.926 261.35C308.709 261.53 309.296 261.737 309.99 262.168C314.218 264.797 316.296 275.826 317.392 280.515C322.597 302.789 318.573 323.981 306.539 343.248C305.524 342.712 304.926 342.167 304.064 341.416C303.306 337.721 309.69 330.373 311.076 326.48C313.693 319.099 315.184 311.367 315.499 303.543C315.713 297.189 315.229 290.83 314.053 284.582C312.641 277.319 308.707 270.158 307.555 263.775C307.394 262.886 307.642 262.182 307.926 261.35Z"/>
	<path fill="#FECC50" d="M324.927 458.039C326.061 458.877 327.066 459.695 328.046 460.709C339.382 461.995 350.637 461.206 362.003 461.253C371.726 461.293 381.876 462.345 391.517 461.07C391.494 468.417 390.856 476.443 391.745 483.701C386.615 483.665 381.415 483.787 376.294 483.558C361.559 564.223 347.286 644.971 333.474 725.799L332.281 731.453L262.859 731.015C255.755 731.019 244.038 730.08 237.435 731.497C239.946 701.814 246.846 672.128 252.056 642.802C257.741 609.466 263.716 576.181 269.982 542.949C272.113 531.009 273.809 518.981 276.049 507.066L279.827 508.523C294.449 491.412 311.277 475.881 324.927 458.039Z"/>
	<path fill="#010101" d="M324.927 458.039C326.061 458.877 327.066 459.695 328.046 460.709L326.732 462.007C335.494 471.543 347.249 477.421 356.487 486.548C353.355 490.133 350.017 493.654 347.08 497.395L345.72 498.641C343.283 503.017 339.403 506.305 336.915 510.626L335.57 512.294C332.729 516.716 329.24 520.526 325.623 524.319L324.062 526.09C312.924 517.812 301.819 509.521 291.122 500.672C287.954 503.766 285.207 507.226 282.593 510.789L279.827 508.523C294.449 491.412 311.277 475.881 324.927 458.039Z"/>
	<path fill="#D4BEF8" d="M326.732 462.007C335.494 471.543 347.249 477.421 356.487 486.548C353.355 490.133 350.017 493.654 347.08 497.395C337.973 488.143 326.682 481.203 315.952 474.001C319.339 469.822 322.937 465.819 326.732 462.007Z"/>
	<path fill="#D4BEF8" d="M302.65 488.617C312.413 497.746 324.292 505.204 335.57 512.294C332.729 516.716 329.24 520.526 325.623 524.319C315.986 514.508 304.353 506.653 293.436 498.362L302.65 488.617Z"/>
	<path fill="#D4BEF8" d="M313.812 476.291C324.603 483.491 334.135 492.636 345.72 498.641C343.283 503.017 339.403 506.305 336.915 510.626C327.565 501.272 315.494 493.813 304.689 486.241L313.812 476.291Z"/>
	<path fill="#D4BEF8" d="M291.122 500.672C301.819 509.521 312.924 517.812 324.062 526.09C321.445 529.914 318.887 533.777 316.387 537.679C304.688 529.34 293.002 520.724 282.593 510.789C285.207 507.226 287.954 503.766 291.122 500.672Z"/>
	<path fill="#6501FE" d="M332.281 731.453L333.474 725.799C333.337 728.055 333.17 729.818 334.863 731.566C334.975 731.682 335.109 731.777 335.231 731.882C335.965 731.121 336.094 731.235 336.21 730.12C337.858 731.805 342.826 731.38 345.172 731.408C368.033 731.684 391.005 731.028 413.886 731.021C423.225 731.018 433.038 730.432 442.318 731.305C440.079 731.808 437.99 732.021 435.697 732.1C435.703 735.308 435.844 738.928 434.979 742.038C433.912 748.962 433.602 756.507 434.191 763.501C438.402 764.981 441.479 768.66 444.563 771.732C454.844 780.597 464.314 790.291 473.4 800.369C479.556 807.185 485.843 813.88 492.26 820.451C496.938 825.321 502.266 830.384 506.007 836.016C506.381 836.969 506.392 837.037 506.151 838.03C505.595 838.302 505.495 838.383 504.801 838.536C501.662 839.224 497.769 838.627 494.569 838.601C487.686 838.547 480.77 838.779 473.885 838.831C448.891 839.02 233.395 839.406 229.314 836.864L229.257 836.014C232.735 811.735 237.12 787.612 241.003 763.399C241.336 761.208 241.844 759.136 242.445 757.003C244.829 748.926 245.718 740.204 247.633 731.955C244.83 731.965 239.861 732.677 237.435 731.497C244.038 730.08 255.755 731.019 262.859 731.015L332.281 731.453ZM332.478 754.161C332.12 757.245 331.717 760.331 331.417 763.421L333.396 763.399C336.172 762.911 339.14 763.162 341.953 763.197C341.471 752.88 341.56 742.851 342.075 732.538C339.95 732.483 337.852 732.329 335.735 732.136C334.908 739.389 334.079 747.05 332.478 754.161Z"/>
	<path fill="#01011C" d="M332.281 731.453L333.474 725.799C333.337 728.055 333.17 729.818 334.863 731.566C334.975 731.682 335.109 731.777 335.231 731.882C335.965 731.121 336.094 731.235 336.21 730.12C337.858 731.805 342.826 731.38 345.172 731.408C368.033 731.684 391.005 731.028 413.886 731.021C423.225 731.018 433.038 730.432 442.318 731.305C440.079 731.808 437.99 732.021 435.697 732.1C435.703 735.308 435.844 738.928 434.979 742.038C433.912 748.962 433.602 756.507 434.191 763.501C431.325 764.357 428.004 764.298 425.029 764.379C418.828 764.548 412.607 764.131 406.406 764.042C397.21 763.911 388.002 763.998 378.805 763.995C368.698 763.99 352.458 764.902 342.922 763.704C339.748 763.562 336.573 763.461 333.396 763.399C336.172 762.911 339.14 763.162 341.953 763.197C341.471 752.88 341.56 742.851 342.075 732.538C339.95 732.483 337.852 732.329 335.735 732.136C334.908 739.389 334.079 747.05 332.478 754.161C332.12 757.245 331.717 760.331 331.417 763.421C324.694 765.179 306.061 763.927 298.03 763.922C279.69 763.91 259.1 764.99 241.003 763.399C241.336 761.208 241.844 759.136 242.445 757.003C244.829 748.926 245.718 740.204 247.633 731.955C244.83 731.965 239.861 732.677 237.435 731.497C244.038 730.08 255.755 731.019 262.859 731.015L332.281 731.453Z"/>
	<path fill="#D4BEF8" d="M342.408 754.121C352.398 749.486 368.647 747.803 379.799 745.64C398.212 742.067 416.446 737.902 435.094 735.672C435.039 737.794 435 739.916 434.979 742.038C433.912 748.962 433.602 756.507 434.191 763.501C431.325 764.357 428.004 764.298 425.029 764.379C418.828 764.548 412.607 764.131 406.406 764.042C397.21 763.911 388.002 763.998 378.805 763.995C368.698 763.99 352.458 764.902 342.922 763.704C342.981 760.503 342.656 757.309 342.408 754.121Z"/>
	<path fill="#D4BEF8" d="M242.445 757.003C257.933 754.361 273.333 751.232 288.623 747.621C303.639 744.123 318.638 740.164 333.849 737.606C333.369 743.115 332.597 748.629 332.478 754.161C332.12 757.245 331.717 760.331 331.417 763.421C324.694 765.179 306.061 763.927 298.03 763.922C279.69 763.91 259.1 764.99 241.003 763.399C241.336 761.208 241.844 759.136 242.445 757.003Z"/>
	<path fill="#FEFCFE" d="M444.563 771.732C454.844 780.597 464.314 790.291 473.4 800.369C467.569 806.622 461.611 812.755 455.53 818.764C445.653 810.162 435.225 799.412 426.802 789.376C432.844 783.618 438.766 777.736 444.563 771.732Z"/>
	<path fill="#6501FE" d="M456.492 786.406C456.521 786.427 456.553 786.445 456.579 786.468C457.82 787.561 458.003 787.53 458.161 789.137C456.463 793.673 451.156 797.453 447.627 800.658C446.488 800.212 446.502 800.062 445.767 799.168C445.978 795.392 453.662 789.192 456.492 786.406Z"/>
	<path fill="#010101" d="M506.007 836.016C506.381 836.969 506.392 837.037 506.151 838.03C505.595 838.302 505.495 838.383 504.801 838.536C501.662 839.224 497.769 838.627 494.569 838.601C487.686 838.547 480.77 838.779 473.885 838.831C448.891 839.02 233.395 839.406 229.314 836.864L229.257 836.014L430.602 836.023L485.458 836.306C492.006 836.295 499.62 837.175 506.007 836.016Z"/>
	<path fill="#FEFCFE" d="M335.415 770.369C344.884 778.881 353.96 787.821 362.614 797.161L341.836 817.814C331.642 811.126 322.841 800.075 314.431 791.23C321.567 784.421 328.563 777.465 335.415 770.369Z"/>
	<path fill="#6501FE" d="M341.498 788.95C342.56 789.82 342.743 789.907 343.14 791.202C342.057 795.288 336.945 798.88 333.861 801.668C333.695 801.616 333.519 801.589 333.361 801.513C332.173 800.945 332.043 800.698 331.62 799.534C332.673 795.167 338.109 791.606 341.498 788.95Z"/>
	<path fill="#D4BEF8" d="M566.916 136.338C568.762 135.231 571.428 133.416 573.631 133.286C575.954 133.148 577.302 133.955 579.09 135.331C579.878 136.553 580.622 137.685 581.631 138.745C583.153 138.672 583.636 138.073 584.852 137.195C587.997 136.262 590.656 135.677 593.704 137.267C594.343 137.601 594.961 137.974 595.576 138.349C596.669 139.203 597.7 139.968 598.933 140.622C599.936 140.463 600.662 140.204 601.576 139.766C604.037 139.054 607.513 138.276 609.905 139.684C611.342 140.529 612.159 141.749 612.501 143.357C613.896 149.916 609.01 160.919 608.134 167.789C607.836 171.289 606.908 174.743 606.129 178.163C602.56 192.208 600.658 207.052 597.932 221.312C589.876 264.976 582.275 308.722 575.129 352.544L519.408 352.612C509.768 351.888 499.52 352.489 489.83 352.432C489.54 345.945 489.928 339.326 489.966 332.826L489.952 295.75C489.961 288.791 489.909 281.833 489.797 274.875C489.682 268.977 489.17 262.697 490.041 256.86C491.169 255.903 492.344 256.061 493.785 255.901L514.975 255.966C516.456 245.353 517.203 234.521 518.348 223.86L525.3 159.504C532.037 155.464 539.413 152.154 546.374 148.468C546.444 146.985 546.613 145.509 546.761 144.033C548.898 144.579 553.348 140.217 555.526 139.324C557.26 138.614 559.624 138.922 561.487 138.67L562.123 137.601L562.996 138.277C564.549 138.515 565.655 137.223 566.916 136.338Z"/>
	<path fill="#010101" d="M566.916 136.338C568.762 135.231 571.428 133.416 573.631 133.286C575.954 133.148 577.302 133.955 579.09 135.331C579.878 136.553 580.622 137.685 581.631 138.745C583.153 138.672 583.636 138.073 584.852 137.195C587.997 136.262 590.656 135.677 593.704 137.267C594.343 137.601 594.961 137.974 595.576 138.349C596.669 139.203 597.7 139.968 598.933 140.622C599.936 140.463 600.662 140.204 601.576 139.766C604.037 139.054 607.513 138.276 609.905 139.684C611.342 140.529 612.159 141.749 612.501 143.357C613.896 149.916 609.01 160.919 608.134 167.789C607.836 171.289 606.908 174.743 606.129 178.163C606.065 177.195 605.992 176.228 605.91 175.262C605.086 174.424 604.709 174.34 603.524 174.09C597.794 172.88 591.787 172.395 585.982 171.492C573.308 169.61 560.688 167.378 548.138 164.795C545.073 167.801 542.45 171.039 537.902 171.494L537.189 170.298C540.542 160.652 562.437 157.619 566.195 148.901C566.716 147.692 566.46 146.104 565.827 144.967C565.13 143.714 564.297 143.123 562.93 142.72C557.59 141.148 550.854 146.089 546.374 148.468C546.444 146.985 546.613 145.509 546.761 144.033C548.898 144.579 553.348 140.217 555.526 139.324C557.26 138.614 559.624 138.922 561.487 138.67L562.123 137.601L562.996 138.277C564.549 138.515 565.655 137.223 566.916 136.338Z"/>
	<path fill="#D4BEF8" d="M601.576 139.766C604.037 139.054 607.513 138.276 609.905 139.684C611.342 140.529 612.159 141.749 612.501 143.357C613.896 149.916 609.01 160.919 608.134 167.789C607.843 168.619 607.509 169.428 607.182 170.244C604.417 171.999 598.114 169.69 594.981 169.068C596.189 162.091 597.925 145.354 601.576 139.766Z"/>
	<path fill="#D4BEF8" d="M584.852 137.195C587.997 136.262 590.656 135.677 593.704 137.267C594.343 137.601 594.961 137.974 595.576 138.349C596.88 143.301 592.305 161.878 591.289 168.317C586.927 167.27 582.472 166.791 578.016 166.355C579.662 159.108 581.671 142.926 584.852 137.195Z"/>
	<path fill="#D4BEF8" d="M566.916 136.338C568.762 135.231 571.428 133.416 573.631 133.286C575.954 133.148 577.302 133.955 579.09 135.331C580.695 141.565 576.007 158.558 574.75 165.785C570.696 164.995 566.542 164.347 562.569 163.218C563.328 160.641 564.166 158.057 564.815 155.453C566.876 153.52 569.346 151.682 569.377 148.571C569.427 143.736 564.421 141.538 566.916 136.338Z"/>
	<path fill="#D4BEF8" d="M379.349 197.012C384.094 196.239 388.838 196.009 393.639 196.021C394.319 202.45 395.187 208.928 394.941 215.405C394.75 221.886 395.6 240.092 391.289 244.497C390.139 245.673 388.62 246.511 387.255 247.413C386.423 247.963 386.723 247.694 386.151 248.425C385.979 248.44 385.809 248.472 385.636 248.47C374.659 248.343 366.609 238.939 359.691 231.759C358.812 230.848 358.388 230.349 357.079 230.333L356.477 231.733C356.103 227.034 356.594 222.89 355.346 218.223C353.126 219.156 351.141 219.956 348.785 218.955C346.933 218.169 345.47 216.957 344.815 215.011C344.068 212.79 344.557 209.836 345.635 207.796C348.184 202.974 352.566 207.933 355.845 206.84L356.411 204.892C358.47 202.449 364.356 200.335 367.317 198.733C371.018 199.426 375.699 197.841 379.349 197.012Z"/>
	<path fill="#010101" d="M394.941 215.405C394.75 221.886 395.6 240.092 391.289 244.497C390.139 245.673 388.62 246.511 387.255 247.413C386.423 247.963 386.723 247.694 386.151 248.425C385.979 248.44 385.809 248.472 385.636 248.47C374.659 248.343 366.609 238.939 359.691 231.759C358.812 230.848 358.388 230.349 357.079 230.333L356.477 231.733C356.103 227.034 356.594 222.89 355.346 218.223L356.095 218.516C356.628 219.98 357.251 221.299 358.101 222.611C361.172 227.354 364.643 229.63 370.188 230.729C376.166 231.913 383.207 231.347 388.277 227.77C392.832 224.558 394.132 220.623 394.941 215.405Z"/>
	<path fill="#010101" d="M386.974 215.449L387.807 215.667L388.18 217.006C387.906 217.91 387.915 218.181 387.226 218.894C383.928 222.308 375.603 223.413 370.974 223.614C370.206 222.521 369.654 222.246 369.841 220.859C376.157 219.947 381.475 218.798 386.974 215.449Z"/>
	<path fill="#010101" d="M378.168 199.555C379.696 200.177 379.829 200.261 380.756 201.622C381.114 203.604 380.514 205.348 380.017 207.249C379.013 206.371 378.021 205.492 377.522 204.207C376.912 202.638 377.635 201.032 378.168 199.555Z"/>
	<path fill="#010101" d="M386.986 199.079C388.32 199.551 389.152 199.846 390.102 200.97C390.597 202.508 390.198 203.581 389.786 205.071C388.24 204.828 388.11 204.802 386.976 203.735C386.467 202.057 386.71 200.787 386.986 199.079Z"/>
	<path fill="#FECC50" d="M384.456 168.653C385.16 167.61 385.908 166.562 386.732 165.609C388.69 163.343 391.812 161.669 394.834 161.565C397.991 161.457 400.982 162.725 403.272 164.87C406.07 167.475 407.665 171.123 407.677 174.946C407.684 178.04 406.579 181.052 404.285 183.178C401.006 186.217 396.998 186.573 392.772 186.518C393.147 189.679 393.39 192.848 393.639 196.021C388.838 196.009 384.094 196.239 379.349 197.012C375.699 197.841 371.018 199.426 367.317 198.733C364.356 200.335 358.47 202.449 356.411 204.892C353.108 203.766 350.182 202.202 348.154 199.272C346.182 196.403 345.44 192.863 346.094 189.444C346.648 186.352 348.456 183.628 351.09 181.918C354.981 179.43 358.478 179.923 362.713 180.848C362.965 176.136 363.496 171.948 366.714 168.213C368.669 165.944 371.472 164.386 374.494 164.259C378.443 164.093 381.614 166.148 384.456 168.653Z"/>
	<path fill="#D4BEF8" d="M374.44 192.973C375.984 194.474 377.629 195.726 379.349 197.012C375.699 197.841 371.018 199.426 367.317 198.733C369.629 196.751 372.069 194.886 374.44 192.973Z"/>
	<path fill="#D4BEF8" d="M546.761 144.033C547.772 137.655 548.929 112.497 552.657 108.772C554.125 107.305 556.717 106.927 558.686 107.058C560.773 107.196 563.339 107.858 564.661 109.622C568.019 114.104 563.531 132.106 562.123 137.601L561.487 138.67C559.624 138.922 557.26 138.614 555.526 139.324C553.348 140.217 548.898 144.579 546.761 144.033Z"/>
</svg>
